<svg xmlns="http://www.w3.org/2000/svg" width="64" height="64"><g fill="#fff"><path d="M44 57H20c-7.168 0-13-5.832-13-13V20c0-7.168 5.832-13 13-13h24c7.168 0 13 5.832 13 13v24c0 7.168-5.832 13-13 13zM20 9C13.934 9 9 13.934 9 20v24c0 6.066 4.934 11 11 11h24c6.066 0 11-4.934 11-11V20c0-6.066-4.934-11-11-11zm0 0"/><path d="M32 45c-7.168 0-13-5.832-13-13s5.832-13 13-13 13 5.832 13 13-5.832 13-13 13zm0-22c-4.96 0-9 4.04-9 9 0 4.965 4.04 9 9 9 4.965 0 9-4.035 9-9 0-4.96-4.035-9-9-9zm14-8a3 3 0 10.002 6.002A3 3 0 0046 15zm0 0"/></g></svg>